<mxfile host="app.diagrams.net" agent="Mozilla/5.0 (Macintosh; Intel Mac OS X 10_15_7) AppleWebKit/537.36 (KHTML, like Gecko) Chrome/134.0.0.0 Safari/537.36" version="26.1.2">
  <diagram name="Page-1" id="MxvoKU37M3fdWtfnio12">
    <mxGraphModel dx="1493" dy="1035" grid="1" gridSize="10" guides="1" tooltips="1" connect="1" arrows="1" fold="1" page="1" pageScale="1" pageWidth="1169" pageHeight="1654" math="0" shadow="0">
      <root>
        <mxCell id="0" />
        <mxCell id="1" parent="0" />
        <mxCell id="OjwI3aqR1hCVZbcka7N2-54" value="" style="swimlane;startSize=0;" parent="1" vertex="1">
          <mxGeometry x="40" y="780" width="1090" height="790" as="geometry" />
        </mxCell>
        <mxCell id="OjwI3aqR1hCVZbcka7N2-10" value="StoreBag" style="rounded=0;whiteSpace=wrap;html=1;fontSize=19;" parent="OjwI3aqR1hCVZbcka7N2-54" vertex="1">
          <mxGeometry x="486" y="217.5" width="165" height="50" as="geometry" />
        </mxCell>
        <mxCell id="OjwI3aqR1hCVZbcka7N2-262" value="extends" style="edgeStyle=orthogonalEdgeStyle;rounded=0;orthogonalLoop=1;jettySize=auto;html=1;exitX=0.5;exitY=0;exitDx=0;exitDy=0;entryX=0.5;entryY=1;entryDx=0;entryDy=0;endArrow=none;startFill=0;" parent="OjwI3aqR1hCVZbcka7N2-54" source="OjwI3aqR1hCVZbcka7N2-8" target="OjwI3aqR1hCVZbcka7N2-6" edge="1">
          <mxGeometry relative="1" as="geometry" />
        </mxCell>
        <mxCell id="OjwI3aqR1hCVZbcka7N2-8" value="Subscriber" style="rounded=0;whiteSpace=wrap;html=1;fontSize=19;" parent="OjwI3aqR1hCVZbcka7N2-54" vertex="1">
          <mxGeometry x="910" y="337" width="160" height="55" as="geometry" />
        </mxCell>
        <mxCell id="OjwI3aqR1hCVZbcka7N2-231" style="edgeStyle=orthogonalEdgeStyle;rounded=0;orthogonalLoop=1;jettySize=auto;html=1;exitX=0.5;exitY=1;exitDx=0;exitDy=0;entryX=0.5;entryY=0;entryDx=0;entryDy=0;endArrow=none;startFill=0;" parent="OjwI3aqR1hCVZbcka7N2-54" source="OjwI3aqR1hCVZbcka7N2-15" target="OjwI3aqR1hCVZbcka7N2-226" edge="1">
          <mxGeometry relative="1" as="geometry" />
        </mxCell>
        <mxCell id="OjwI3aqR1hCVZbcka7N2-15" value="IPurchaseType" style="rounded=0;whiteSpace=wrap;html=1;fontSize=19;" parent="OjwI3aqR1hCVZbcka7N2-54" vertex="1">
          <mxGeometry x="511.5" y="480" width="190" height="50" as="geometry" />
        </mxCell>
        <mxCell id="OjwI3aqR1hCVZbcka7N2-219" style="edgeStyle=orthogonalEdgeStyle;rounded=0;orthogonalLoop=1;jettySize=auto;html=1;exitX=0.5;exitY=0;exitDx=0;exitDy=0;entryX=0.5;entryY=1;entryDx=0;entryDy=0;endArrow=none;startFill=0;" parent="OjwI3aqR1hCVZbcka7N2-54" source="OjwI3aqR1hCVZbcka7N2-33" target="OjwI3aqR1hCVZbcka7N2-14" edge="1">
          <mxGeometry relative="1" as="geometry" />
        </mxCell>
        <mxCell id="OjwI3aqR1hCVZbcka7N2-33" value="IDiscount" style="rounded=0;whiteSpace=wrap;html=1;fontSize=19;" parent="OjwI3aqR1hCVZbcka7N2-54" vertex="1">
          <mxGeometry x="120" y="470" width="120" height="50" as="geometry" />
        </mxCell>
        <mxCell id="OjwI3aqR1hCVZbcka7N2-176" style="edgeStyle=orthogonalEdgeStyle;rounded=0;orthogonalLoop=1;jettySize=auto;html=1;exitX=0.5;exitY=0;exitDx=0;exitDy=0;entryX=0.5;entryY=1;entryDx=0;entryDy=0;endArrow=none;startFill=0;" parent="OjwI3aqR1hCVZbcka7N2-54" source="OjwI3aqR1hCVZbcka7N2-14" target="OjwI3aqR1hCVZbcka7N2-12" edge="1">
          <mxGeometry relative="1" as="geometry" />
        </mxCell>
        <mxCell id="OjwI3aqR1hCVZbcka7N2-14" value="DiscountPolicy" style="rounded=0;whiteSpace=wrap;html=1;fontSize=19;" parent="OjwI3aqR1hCVZbcka7N2-54" vertex="1">
          <mxGeometry x="100" y="360" width="160" height="60" as="geometry" />
        </mxCell>
        <mxCell id="OjwI3aqR1hCVZbcka7N2-222" style="edgeStyle=orthogonalEdgeStyle;rounded=0;orthogonalLoop=1;jettySize=auto;html=1;exitX=0.5;exitY=1;exitDx=0;exitDy=0;entryX=0.5;entryY=0;entryDx=0;entryDy=0;endArrow=none;startFill=0;" parent="OjwI3aqR1hCVZbcka7N2-54" source="OjwI3aqR1hCVZbcka7N2-18" target="OjwI3aqR1hCVZbcka7N2-15" edge="1">
          <mxGeometry relative="1" as="geometry" />
        </mxCell>
        <mxCell id="OjwI3aqR1hCVZbcka7N2-18" value="PurchasePolicy" style="rounded=0;whiteSpace=wrap;html=1;fontSize=19;" parent="OjwI3aqR1hCVZbcka7N2-54" vertex="1">
          <mxGeometry x="320" y="360" width="166" height="60" as="geometry" />
        </mxCell>
        <mxCell id="OjwI3aqR1hCVZbcka7N2-175" style="edgeStyle=orthogonalEdgeStyle;rounded=0;orthogonalLoop=1;jettySize=auto;html=1;exitX=0.5;exitY=1;exitDx=0;exitDy=0;entryX=0.5;entryY=0;entryDx=0;entryDy=0;endArrow=none;startFill=0;" parent="OjwI3aqR1hCVZbcka7N2-54" source="OjwI3aqR1hCVZbcka7N2-12" target="OjwI3aqR1hCVZbcka7N2-18" edge="1">
          <mxGeometry relative="1" as="geometry" />
        </mxCell>
        <mxCell id="OjwI3aqR1hCVZbcka7N2-12" value="PolicyHandler" style="rounded=0;whiteSpace=wrap;html=1;fontSize=19;" parent="OjwI3aqR1hCVZbcka7N2-54" vertex="1">
          <mxGeometry x="200" y="200" width="180" height="50" as="geometry" />
        </mxCell>
        <mxCell id="OjwI3aqR1hCVZbcka7N2-42" value="1" style="text;html=1;align=center;verticalAlign=middle;whiteSpace=wrap;rounded=0;" parent="OjwI3aqR1hCVZbcka7N2-54" vertex="1">
          <mxGeometry x="260" y="151.25" width="30" height="17.5" as="geometry" />
        </mxCell>
        <mxCell id="OjwI3aqR1hCVZbcka7N2-174" style="edgeStyle=orthogonalEdgeStyle;rounded=0;orthogonalLoop=1;jettySize=auto;html=1;exitX=0.5;exitY=1;exitDx=0;exitDy=0;entryX=0.5;entryY=0;entryDx=0;entryDy=0;endArrow=none;startFill=0;" parent="OjwI3aqR1hCVZbcka7N2-54" source="OjwI3aqR1hCVZbcka7N2-4" target="OjwI3aqR1hCVZbcka7N2-12" edge="1">
          <mxGeometry relative="1" as="geometry" />
        </mxCell>
        <mxCell id="OjwI3aqR1hCVZbcka7N2-297" style="edgeStyle=orthogonalEdgeStyle;rounded=0;orthogonalLoop=1;jettySize=auto;html=1;exitX=0.5;exitY=0;exitDx=0;exitDy=0;entryX=0.5;entryY=1;entryDx=0;entryDy=0;endArrow=none;startFill=0;" parent="OjwI3aqR1hCVZbcka7N2-54" source="OjwI3aqR1hCVZbcka7N2-4" target="OjwI3aqR1hCVZbcka7N2-296" edge="1">
          <mxGeometry relative="1" as="geometry" />
        </mxCell>
        <mxCell id="OjwI3aqR1hCVZbcka7N2-298" style="edgeStyle=orthogonalEdgeStyle;rounded=0;orthogonalLoop=1;jettySize=auto;html=1;exitX=1;exitY=0.5;exitDx=0;exitDy=0;entryX=0;entryY=0.5;entryDx=0;entryDy=0;endArrow=none;startFill=0;" parent="OjwI3aqR1hCVZbcka7N2-54" source="OjwI3aqR1hCVZbcka7N2-4" target="OjwI3aqR1hCVZbcka7N2-5" edge="1">
          <mxGeometry relative="1" as="geometry" />
        </mxCell>
        <mxCell id="OjwI3aqR1hCVZbcka7N2-4" value="market.domain.store.Store" style="rounded=0;whiteSpace=wrap;html=1;fontSize=19;" parent="OjwI3aqR1hCVZbcka7N2-54" vertex="1">
          <mxGeometry x="220" y="115" width="140" height="50" as="geometry" />
        </mxCell>
        <mxCell id="OjwI3aqR1hCVZbcka7N2-5" value="Product" style="rounded=0;whiteSpace=wrap;html=1;fontSize=19;" parent="OjwI3aqR1hCVZbcka7N2-54" vertex="1">
          <mxGeometry x="439.5" y="114" width="190" height="50" as="geometry" />
        </mxCell>
        <mxCell id="OjwI3aqR1hCVZbcka7N2-61" value="Domain Layer" style="text;html=1;align=center;verticalAlign=middle;whiteSpace=wrap;rounded=0;fontSize=20;fontStyle=7" parent="OjwI3aqR1hCVZbcka7N2-54" vertex="1">
          <mxGeometry x="40" y="20" width="150" height="30" as="geometry" />
        </mxCell>
        <mxCell id="OjwI3aqR1hCVZbcka7N2-295" style="edgeStyle=orthogonalEdgeStyle;rounded=0;orthogonalLoop=1;jettySize=auto;html=1;exitX=0.5;exitY=0;exitDx=0;exitDy=0;entryX=0.5;entryY=1;entryDx=0;entryDy=0;endArrow=none;startFill=0;" parent="OjwI3aqR1hCVZbcka7N2-54" source="OjwI3aqR1hCVZbcka7N2-6" target="OjwI3aqR1hCVZbcka7N2-294" edge="1">
          <mxGeometry relative="1" as="geometry" />
        </mxCell>
        <mxCell id="OjwI3aqR1hCVZbcka7N2-6" value="User" style="rounded=0;whiteSpace=wrap;html=1;fontSize=19;" parent="OjwI3aqR1hCVZbcka7N2-54" vertex="1">
          <mxGeometry x="920" y="150" width="140" height="50" as="geometry" />
        </mxCell>
        <mxCell id="OjwI3aqR1hCVZbcka7N2-64" style="edgeStyle=orthogonalEdgeStyle;rounded=0;orthogonalLoop=1;jettySize=auto;html=1;exitX=0;exitY=0.5;exitDx=0;exitDy=0;entryX=1;entryY=0.5;entryDx=0;entryDy=0;endArrow=none;startFill=0;" parent="OjwI3aqR1hCVZbcka7N2-54" source="OjwI3aqR1hCVZbcka7N2-63" target="OjwI3aqR1hCVZbcka7N2-10" edge="1">
          <mxGeometry relative="1" as="geometry" />
        </mxCell>
        <mxCell id="OjwI3aqR1hCVZbcka7N2-63" value="ShoppingCart" style="rounded=0;whiteSpace=wrap;html=1;fontSize=19;" parent="OjwI3aqR1hCVZbcka7N2-54" vertex="1">
          <mxGeometry x="718.5" y="217.5" width="140" height="50" as="geometry" />
        </mxCell>
        <mxCell id="OjwI3aqR1hCVZbcka7N2-69" value="n" style="text;html=1;align=center;verticalAlign=middle;whiteSpace=wrap;rounded=0;" parent="OjwI3aqR1hCVZbcka7N2-54" vertex="1">
          <mxGeometry x="650.5" y="223" width="30" height="17.5" as="geometry" />
        </mxCell>
        <mxCell id="OjwI3aqR1hCVZbcka7N2-70" value="1" style="text;html=1;align=center;verticalAlign=middle;whiteSpace=wrap;rounded=0;" parent="OjwI3aqR1hCVZbcka7N2-54" vertex="1">
          <mxGeometry x="690.5" y="223.5" width="30" height="17.5" as="geometry" />
        </mxCell>
        <mxCell id="OjwI3aqR1hCVZbcka7N2-213" value="1" style="text;html=1;align=center;verticalAlign=middle;whiteSpace=wrap;rounded=0;" parent="OjwI3aqR1hCVZbcka7N2-54" vertex="1">
          <mxGeometry x="260" y="250" width="30" height="17.5" as="geometry" />
        </mxCell>
        <mxCell id="OjwI3aqR1hCVZbcka7N2-214" value="1" style="text;html=1;align=center;verticalAlign=middle;whiteSpace=wrap;rounded=0;" parent="OjwI3aqR1hCVZbcka7N2-54" vertex="1">
          <mxGeometry x="154" y="339.5" width="30" height="17.5" as="geometry" />
        </mxCell>
        <mxCell id="OjwI3aqR1hCVZbcka7N2-215" value="1" style="text;html=1;align=center;verticalAlign=middle;whiteSpace=wrap;rounded=0;" parent="OjwI3aqR1hCVZbcka7N2-54" vertex="1">
          <mxGeometry x="290" y="250" width="30" height="17.5" as="geometry" />
        </mxCell>
        <mxCell id="OjwI3aqR1hCVZbcka7N2-216" value="1" style="text;html=1;align=center;verticalAlign=middle;whiteSpace=wrap;rounded=0;" parent="OjwI3aqR1hCVZbcka7N2-54" vertex="1">
          <mxGeometry x="290" y="182.5" width="30" height="17.5" as="geometry" />
        </mxCell>
        <mxCell id="OjwI3aqR1hCVZbcka7N2-217" value="1" style="text;html=1;align=center;verticalAlign=middle;whiteSpace=wrap;rounded=0;" parent="OjwI3aqR1hCVZbcka7N2-54" vertex="1">
          <mxGeometry x="400" y="340" width="30" height="17.5" as="geometry" />
        </mxCell>
        <mxCell id="OjwI3aqR1hCVZbcka7N2-220" value="1" style="text;html=1;align=center;verticalAlign=middle;whiteSpace=wrap;rounded=0;" parent="OjwI3aqR1hCVZbcka7N2-54" vertex="1">
          <mxGeometry x="154" y="420" width="30" height="17.5" as="geometry" />
        </mxCell>
        <mxCell id="OjwI3aqR1hCVZbcka7N2-221" value="n" style="text;html=1;align=center;verticalAlign=middle;whiteSpace=wrap;rounded=0;" parent="OjwI3aqR1hCVZbcka7N2-54" vertex="1">
          <mxGeometry x="154" y="452.5" width="30" height="17.5" as="geometry" />
        </mxCell>
        <mxCell id="OjwI3aqR1hCVZbcka7N2-223" value="1" style="text;html=1;align=center;verticalAlign=middle;whiteSpace=wrap;rounded=0;" parent="OjwI3aqR1hCVZbcka7N2-54" vertex="1">
          <mxGeometry x="376" y="420" width="30" height="17.5" as="geometry" />
        </mxCell>
        <mxCell id="OjwI3aqR1hCVZbcka7N2-224" value="n" style="text;html=1;align=center;verticalAlign=middle;whiteSpace=wrap;rounded=0;" parent="OjwI3aqR1hCVZbcka7N2-54" vertex="1">
          <mxGeometry x="580" y="460" width="30" height="17.5" as="geometry" />
        </mxCell>
        <mxCell id="OjwI3aqR1hCVZbcka7N2-226" value="Regular" style="rounded=0;whiteSpace=wrap;html=1;fontSize=19;" parent="OjwI3aqR1hCVZbcka7N2-54" vertex="1">
          <mxGeometry x="327" y="640" width="127" height="60" as="geometry" />
        </mxCell>
        <mxCell id="OjwI3aqR1hCVZbcka7N2-232" style="edgeStyle=orthogonalEdgeStyle;rounded=0;orthogonalLoop=1;jettySize=auto;html=1;exitX=0.5;exitY=0;exitDx=0;exitDy=0;entryX=0.5;entryY=1;entryDx=0;entryDy=0;endArrow=none;startFill=0;" parent="OjwI3aqR1hCVZbcka7N2-54" source="OjwI3aqR1hCVZbcka7N2-227" target="OjwI3aqR1hCVZbcka7N2-15" edge="1">
          <mxGeometry relative="1" as="geometry" />
        </mxCell>
        <mxCell id="OjwI3aqR1hCVZbcka7N2-227" value="Bid" style="rounded=0;whiteSpace=wrap;html=1;fontSize=19;" parent="OjwI3aqR1hCVZbcka7N2-54" vertex="1">
          <mxGeometry x="471" y="640" width="127" height="60" as="geometry" />
        </mxCell>
        <mxCell id="OjwI3aqR1hCVZbcka7N2-233" style="edgeStyle=orthogonalEdgeStyle;rounded=0;orthogonalLoop=1;jettySize=auto;html=1;exitX=0.5;exitY=0;exitDx=0;exitDy=0;entryX=0.5;entryY=1;entryDx=0;entryDy=0;endArrow=none;startFill=0;" parent="OjwI3aqR1hCVZbcka7N2-54" source="OjwI3aqR1hCVZbcka7N2-228" target="OjwI3aqR1hCVZbcka7N2-15" edge="1">
          <mxGeometry relative="1" as="geometry" />
        </mxCell>
        <mxCell id="OjwI3aqR1hCVZbcka7N2-228" value="Auction" style="rounded=0;whiteSpace=wrap;html=1;fontSize=19;" parent="OjwI3aqR1hCVZbcka7N2-54" vertex="1">
          <mxGeometry x="620" y="640" width="127" height="60" as="geometry" />
        </mxCell>
        <mxCell id="OjwI3aqR1hCVZbcka7N2-234" style="edgeStyle=orthogonalEdgeStyle;rounded=0;orthogonalLoop=1;jettySize=auto;html=1;exitX=0.5;exitY=0;exitDx=0;exitDy=0;entryX=0.5;entryY=1;entryDx=0;entryDy=0;endArrow=none;startFill=0;" parent="OjwI3aqR1hCVZbcka7N2-54" source="OjwI3aqR1hCVZbcka7N2-229" target="OjwI3aqR1hCVZbcka7N2-15" edge="1">
          <mxGeometry relative="1" as="geometry" />
        </mxCell>
        <mxCell id="OjwI3aqR1hCVZbcka7N2-229" value="Raffle" style="rounded=0;whiteSpace=wrap;html=1;fontSize=19;" parent="OjwI3aqR1hCVZbcka7N2-54" vertex="1">
          <mxGeometry x="767" y="640" width="127" height="60" as="geometry" />
        </mxCell>
        <mxCell id="OjwI3aqR1hCVZbcka7N2-230" style="edgeStyle=orthogonalEdgeStyle;rounded=0;orthogonalLoop=1;jettySize=auto;html=1;exitX=0.5;exitY=1;exitDx=0;exitDy=0;" parent="OjwI3aqR1hCVZbcka7N2-54" edge="1">
          <mxGeometry relative="1" as="geometry">
            <mxPoint x="585.5" y="480" as="sourcePoint" />
            <mxPoint x="585.5" y="480" as="targetPoint" />
          </mxGeometry>
        </mxCell>
        <mxCell id="OjwI3aqR1hCVZbcka7N2-239" style="edgeStyle=orthogonalEdgeStyle;rounded=0;orthogonalLoop=1;jettySize=auto;html=1;exitX=0.5;exitY=0;exitDx=0;exitDy=0;entryX=0.5;entryY=1;entryDx=0;entryDy=0;endArrow=none;startFill=0;" parent="OjwI3aqR1hCVZbcka7N2-54" source="OjwI3aqR1hCVZbcka7N2-235" target="OjwI3aqR1hCVZbcka7N2-33" edge="1">
          <mxGeometry relative="1" as="geometry" />
        </mxCell>
        <mxCell id="OjwI3aqR1hCVZbcka7N2-235" value="Standart Discount" style="rounded=0;whiteSpace=wrap;html=1;fontSize=19;" parent="OjwI3aqR1hCVZbcka7N2-54" vertex="1">
          <mxGeometry x="184" y="640" width="127" height="60" as="geometry" />
        </mxCell>
        <mxCell id="OjwI3aqR1hCVZbcka7N2-238" style="edgeStyle=orthogonalEdgeStyle;rounded=0;orthogonalLoop=1;jettySize=auto;html=1;exitX=0.5;exitY=0;exitDx=0;exitDy=0;entryX=0.5;entryY=1;entryDx=0;entryDy=0;endArrow=none;startFill=0;" parent="OjwI3aqR1hCVZbcka7N2-54" source="OjwI3aqR1hCVZbcka7N2-236" target="OjwI3aqR1hCVZbcka7N2-33" edge="1">
          <mxGeometry relative="1" as="geometry" />
        </mxCell>
        <mxCell id="OjwI3aqR1hCVZbcka7N2-236" value="Coupon&lt;br&gt;Discount" style="rounded=0;whiteSpace=wrap;html=1;fontSize=19;" parent="OjwI3aqR1hCVZbcka7N2-54" vertex="1">
          <mxGeometry x="47" y="640" width="127" height="60" as="geometry" />
        </mxCell>
        <mxCell id="OjwI3aqR1hCVZbcka7N2-241" value="1" style="text;html=1;align=center;verticalAlign=middle;whiteSpace=wrap;rounded=0;" parent="OjwI3aqR1hCVZbcka7N2-54" vertex="1">
          <mxGeometry x="360" y="120.5" width="30" height="17.5" as="geometry" />
        </mxCell>
        <mxCell id="OjwI3aqR1hCVZbcka7N2-246" value="n" style="text;html=1;align=center;verticalAlign=middle;whiteSpace=wrap;rounded=0;" parent="OjwI3aqR1hCVZbcka7N2-54" vertex="1">
          <mxGeometry x="409.5" y="120.5" width="30" height="17.5" as="geometry" />
        </mxCell>
        <mxCell id="OjwI3aqR1hCVZbcka7N2-247" value="Implements" style="text;html=1;align=center;verticalAlign=middle;whiteSpace=wrap;rounded=0;" parent="OjwI3aqR1hCVZbcka7N2-54" vertex="1">
          <mxGeometry x="186" y="533" width="60" height="30" as="geometry" />
        </mxCell>
        <mxCell id="OjwI3aqR1hCVZbcka7N2-248" value="Implements" style="text;html=1;align=center;verticalAlign=middle;whiteSpace=wrap;rounded=0;" parent="OjwI3aqR1hCVZbcka7N2-54" vertex="1">
          <mxGeometry x="616" y="540" width="60" height="30" as="geometry" />
        </mxCell>
        <mxCell id="OjwI3aqR1hCVZbcka7N2-280" style="edgeStyle=orthogonalEdgeStyle;rounded=0;orthogonalLoop=1;jettySize=auto;html=1;exitX=1;exitY=0.5;exitDx=0;exitDy=0;entryX=0;entryY=0.5;entryDx=0;entryDy=0;endArrow=none;startFill=0;" parent="OjwI3aqR1hCVZbcka7N2-54" source="OjwI3aqR1hCVZbcka7N2-251" target="OjwI3aqR1hCVZbcka7N2-8" edge="1">
          <mxGeometry relative="1" as="geometry" />
        </mxCell>
        <mxCell id="OjwI3aqR1hCVZbcka7N2-251" value="ShippingAdress" style="rounded=0;whiteSpace=wrap;html=1;fontSize=19;" parent="OjwI3aqR1hCVZbcka7N2-54" vertex="1">
          <mxGeometry x="598" y="340" width="160" height="50" as="geometry" />
        </mxCell>
        <mxCell id="OjwI3aqR1hCVZbcka7N2-281" value="1" style="text;html=1;align=center;verticalAlign=middle;whiteSpace=wrap;rounded=0;" parent="OjwI3aqR1hCVZbcka7N2-54" vertex="1">
          <mxGeometry x="880" y="342.5" width="30" height="17.5" as="geometry" />
        </mxCell>
        <mxCell id="OjwI3aqR1hCVZbcka7N2-282" value="n" style="text;html=1;align=center;verticalAlign=middle;whiteSpace=wrap;rounded=0;" parent="OjwI3aqR1hCVZbcka7N2-54" vertex="1">
          <mxGeometry x="758" y="340" width="30" height="17.5" as="geometry" />
        </mxCell>
        <mxCell id="OjwI3aqR1hCVZbcka7N2-294" value="IUserRepository" style="rounded=0;whiteSpace=wrap;html=1;fontSize=19;" parent="OjwI3aqR1hCVZbcka7N2-54" vertex="1">
          <mxGeometry x="880" y="51.5" width="180" height="50" as="geometry" />
        </mxCell>
        <mxCell id="OjwI3aqR1hCVZbcka7N2-296" value="market.domain.store.IStoreRepository" style="rounded=0;whiteSpace=wrap;html=1;fontSize=19;" parent="OjwI3aqR1hCVZbcka7N2-54" vertex="1">
          <mxGeometry x="259.5" y="22" width="180" height="50" as="geometry" />
        </mxCell>
        <mxCell id="_3Z4BWfNNUkhhmKr0RaB-16" value="1" style="text;html=1;align=center;verticalAlign=middle;whiteSpace=wrap;rounded=0;" vertex="1" parent="OjwI3aqR1hCVZbcka7N2-54">
          <mxGeometry x="290" y="164.5" width="30" height="17.5" as="geometry" />
        </mxCell>
        <mxCell id="OjwI3aqR1hCVZbcka7N2-272" value="" style="swimlane;startSize=0;" parent="1" vertex="1">
          <mxGeometry x="220" y="380" width="890" height="340" as="geometry" />
        </mxCell>
        <mxCell id="_3Z4BWfNNUkhhmKr0RaB-10" style="edgeStyle=orthogonalEdgeStyle;rounded=0;orthogonalLoop=1;jettySize=auto;html=1;exitX=0.5;exitY=0;exitDx=0;exitDy=0;entryX=0.75;entryY=1;entryDx=0;entryDy=0;endArrow=none;startFill=0;" edge="1" parent="OjwI3aqR1hCVZbcka7N2-272" source="OjwI3aqR1hCVZbcka7N2-259" target="OjwI3aqR1hCVZbcka7N2-257">
          <mxGeometry relative="1" as="geometry" />
        </mxCell>
        <mxCell id="OjwI3aqR1hCVZbcka7N2-259" value="UserService" style="rounded=0;whiteSpace=wrap;html=1;fontSize=19;" parent="OjwI3aqR1hCVZbcka7N2-272" vertex="1">
          <mxGeometry x="620" y="190" width="224" height="60" as="geometry" />
        </mxCell>
        <mxCell id="OjwI3aqR1hCVZbcka7N2-257" value="PaymentService" style="rounded=0;whiteSpace=wrap;html=1;fontSize=19;" parent="OjwI3aqR1hCVZbcka7N2-272" vertex="1">
          <mxGeometry x="364" y="40" width="224" height="60" as="geometry" />
        </mxCell>
        <mxCell id="_3Z4BWfNNUkhhmKr0RaB-8" style="edgeStyle=orthogonalEdgeStyle;rounded=0;orthogonalLoop=1;jettySize=auto;html=1;exitX=0.5;exitY=0;exitDx=0;exitDy=0;entryX=0.25;entryY=1;entryDx=0;entryDy=0;endArrow=none;startFill=0;" edge="1" parent="OjwI3aqR1hCVZbcka7N2-272" source="OjwI3aqR1hCVZbcka7N2-258" target="OjwI3aqR1hCVZbcka7N2-257">
          <mxGeometry relative="1" as="geometry" />
        </mxCell>
        <mxCell id="OjwI3aqR1hCVZbcka7N2-258" value="market.application.StoreService" style="rounded=0;whiteSpace=wrap;html=1;fontSize=19;" parent="OjwI3aqR1hCVZbcka7N2-272" vertex="1">
          <mxGeometry x="40" y="190" width="224" height="60" as="geometry" />
        </mxCell>
        <mxCell id="OjwI3aqR1hCVZbcka7N2-273" value="Application Layer" style="text;html=1;align=center;verticalAlign=middle;whiteSpace=wrap;rounded=0;fontSize=20;fontStyle=7" parent="OjwI3aqR1hCVZbcka7N2-272" vertex="1">
          <mxGeometry x="20" y="20" width="180" height="30" as="geometry" />
        </mxCell>
        <mxCell id="OjwI3aqR1hCVZbcka7N2-274" value="" style="swimlane;startSize=0;" parent="1" vertex="1">
          <mxGeometry x="310" y="50" width="780" height="200" as="geometry" />
        </mxCell>
        <mxCell id="OjwI3aqR1hCVZbcka7N2-275" value="Infrastructure Layer" style="text;html=1;align=center;verticalAlign=middle;whiteSpace=wrap;rounded=0;fontSize=20;fontStyle=7" parent="OjwI3aqR1hCVZbcka7N2-274" vertex="1">
          <mxGeometry x="17" y="20" width="203" height="30" as="geometry" />
        </mxCell>
        <mxCell id="OjwI3aqR1hCVZbcka7N2-278" value="StoreRepository" style="rounded=0;whiteSpace=wrap;html=1;fontSize=19;" parent="OjwI3aqR1hCVZbcka7N2-274" vertex="1">
          <mxGeometry x="40" y="100" width="224" height="60" as="geometry" />
        </mxCell>
        <mxCell id="OjwI3aqR1hCVZbcka7N2-279" value="UserRepository" style="rounded=0;whiteSpace=wrap;html=1;fontSize=19;" parent="OjwI3aqR1hCVZbcka7N2-274" vertex="1">
          <mxGeometry x="540" y="100" width="224" height="60" as="geometry" />
        </mxCell>
        <mxCell id="OjwI3aqR1hCVZbcka7N2-292" value="&lt;font style=&quot;font-size: 16px;&quot;&gt;Dependency injection&lt;/font&gt;" style="text;html=1;align=center;verticalAlign=middle;whiteSpace=wrap;rounded=0;" parent="1" vertex="1">
          <mxGeometry x="510" y="263" width="170" height="40" as="geometry" />
        </mxCell>
        <mxCell id="_3Z4BWfNNUkhhmKr0RaB-6" style="edgeStyle=orthogonalEdgeStyle;rounded=0;orthogonalLoop=1;jettySize=auto;html=1;exitX=0.5;exitY=0;exitDx=0;exitDy=0;entryX=0.5;entryY=1;entryDx=0;entryDy=0;endArrow=none;startFill=0;dashed=1;" edge="1" parent="1" source="OjwI3aqR1hCVZbcka7N2-296" target="OjwI3aqR1hCVZbcka7N2-258">
          <mxGeometry relative="1" as="geometry">
            <Array as="points">
              <mxPoint x="389" y="680" />
              <mxPoint x="372" y="680" />
            </Array>
          </mxGeometry>
        </mxCell>
        <mxCell id="_3Z4BWfNNUkhhmKr0RaB-9" style="edgeStyle=orthogonalEdgeStyle;rounded=0;orthogonalLoop=1;jettySize=auto;html=1;exitX=0.5;exitY=0;exitDx=0;exitDy=0;entryX=0.5;entryY=1;entryDx=0;entryDy=0;endArrow=none;startFill=0;dashed=1;" edge="1" parent="1" source="OjwI3aqR1hCVZbcka7N2-294" target="OjwI3aqR1hCVZbcka7N2-259">
          <mxGeometry relative="1" as="geometry">
            <Array as="points">
              <mxPoint x="1010" y="680" />
              <mxPoint x="952" y="680" />
            </Array>
          </mxGeometry>
        </mxCell>
        <mxCell id="_3Z4BWfNNUkhhmKr0RaB-13" style="edgeStyle=orthogonalEdgeStyle;rounded=0;orthogonalLoop=1;jettySize=auto;html=1;exitX=0.5;exitY=1;exitDx=0;exitDy=0;entryX=0.25;entryY=0;entryDx=0;entryDy=0;endArrow=none;startFill=0;startArrow=none;dashed=1;" edge="1" parent="1" source="OjwI3aqR1hCVZbcka7N2-278" target="OjwI3aqR1hCVZbcka7N2-257">
          <mxGeometry relative="1" as="geometry" />
        </mxCell>
        <mxCell id="_3Z4BWfNNUkhhmKr0RaB-15" style="edgeStyle=orthogonalEdgeStyle;rounded=0;orthogonalLoop=1;jettySize=auto;html=1;exitX=0.5;exitY=1;exitDx=0;exitDy=0;entryX=0.75;entryY=0;entryDx=0;entryDy=0;dashed=1;endArrow=none;startFill=0;" edge="1" parent="1" source="OjwI3aqR1hCVZbcka7N2-279" target="OjwI3aqR1hCVZbcka7N2-257">
          <mxGeometry relative="1" as="geometry" />
        </mxCell>
      </root>
    </mxGraphModel>
  </diagram>
</mxfile>
